<svg width="1993" height="1993" viewBox="0 0 1993 1993" fill="none" xmlns="http://www.w3.org/2000/svg">
<path d="M1438.52 652.757L694.567 879.983L717.108 953.787L1461.06 726.562L1438.52 652.757Z" fill="black"/>
<path d="M1525.49 937.515L781.537 1164.74L804.079 1238.54L1548.03 1011.32L1525.49 937.515Z" fill="black"/>
<path d="M1612.46 1222.27L868.508 1449.5L891.049 1523.3L1635 1296.08L1612.46 1222.27Z" fill="black"/>
<path d="M360 682.977C360 634.513 399.293 595.225 447.763 595.225C496.233 595.225 535.526 634.513 535.526 682.977C535.526 731.441 496.233 770.729 447.763 770.729C399.293 770.729 360 731.441 360 682.977Z" fill="black"/>
<path d="M446.971 967.733C446.971 919.269 486.263 879.981 534.734 879.981C583.204 879.981 622.496 919.269 622.496 967.733C622.496 1016.2 583.204 1055.49 534.734 1055.49C486.263 1055.49 446.971 1016.2 446.971 967.733Z" fill="black"/>
<path d="M533.941 1252.49C533.941 1204.03 573.234 1164.74 621.704 1164.74C670.174 1164.74 709.467 1204.03 709.467 1252.49C709.467 1300.95 670.174 1340.24 621.704 1340.24C573.234 1340.24 533.941 1300.95 533.941 1252.49Z" fill="black"/>
<path d="M1612.46 1222.27L868.508 1449.5L891.049 1523.3L1635 1296.08L1612.46 1222.27Z" fill="black"/>
<path d="M620.912 1537.25C620.912 1488.78 660.205 1449.5 708.675 1449.5C757.145 1449.5 796.438 1488.78 796.438 1537.25C796.438 1585.71 757.145 1625 708.675 1625C660.205 1625 620.912 1585.71 620.912 1537.25Z" fill="black"/>
<path d="M607.596 595.225L1351.55 368L1374.09 441.805L630.137 669.03L607.596 595.225Z" fill="black"/>
<path d="M1499.96 1647.5H1648V1499.05C1659.96 1496.67 1672.34 1495.43 1685 1495.43C1697.31 1495.43 1709.35 1496.61 1721 1498.86V1647.5H1870.04C1872.36 1659.31 1873.57 1671.51 1873.57 1684C1873.57 1696.49 1872.36 1708.69 1870.04 1720.5H1721V1869.14C1709.35 1871.39 1697.31 1872.57 1685 1872.57C1672.34 1872.57 1659.96 1871.33 1648 1868.95V1720.5H1499.96C1497.64 1708.69 1496.43 1696.49 1496.43 1684C1496.43 1671.51 1497.64 1659.31 1499.96 1647.5Z" fill="black"/>
<path fill-rule="evenodd" clip-rule="evenodd" d="M996.5 1993C446.148 1993 0 1546.85 0 996.5C0 446.148 446.148 0 996.5 0C1546.85 0 1993 446.148 1993 996.5C1993 1159.81 1953.71 1313.95 1884.08 1449.98C1950.71 1506.47 1993 1590.8 1993 1685C1993 1855.1 1855.1 1993 1685 1993C1590.8 1993 1506.47 1950.71 1449.98 1884.08C1313.95 1953.71 1159.81 1993 996.5 1993ZM67 996.5C67 1509.85 483.151 1926 996.5 1926C1145.92 1926 1287.1 1890.74 1412.19 1828.1C1389.72 1785.34 1377 1736.66 1377 1685C1377 1514.9 1514.9 1377 1685 1377C1736.66 1377 1785.34 1389.72 1828.1 1412.19C1890.74 1287.1 1926 1145.92 1926 996.5C1926 483.151 1509.85 67 996.5 67C483.151 67 67 483.151 67 996.5ZM1685 1926C1818.1 1926 1926 1818.1 1926 1685C1926 1616.08 1897.07 1553.91 1850.69 1509.99C1834.42 1494.58 1816 1481.42 1795.93 1470.99C1762.73 1453.75 1725 1444 1685 1444C1551.9 1444 1444 1551.9 1444 1685C1444 1725 1453.75 1762.73 1470.99 1795.93C1481.42 1816 1494.58 1834.42 1509.99 1850.69C1553.91 1897.07 1616.08 1926 1685 1926Z" fill="black"/>
</svg>
