<svg width="641" height="513" viewBox="0 0 641 513" fill="none" xmlns="http://www.w3.org/2000/svg">
<path d="M150.7 92.77C195 58.27 251.8 32 320 32C400.8 32 465.5 68.84 512.6 112.6C559.4 156 590.7 207.1 605.5 243.7C608.8 251.6 608.8 260.4 605.5 268.3C592.1 300.6 565.2 346.1 525.6 386.7L630.8 469.1C641.2 477.3 643.1 492.4 634.9 502.8C626.7 513.2 611.6 515.1 601.2 506.9L9.19606 42.89C-1.23594 34.71 -3.06494 19.63 5.11206 9.196C13.2901 -1.236 28.3701 -3.065 38.8101 5.112L150.7 92.77ZM223.1 149.5L313.4 220.3C317.6 211.8 320 202.2 320 191.1C320 180.5 316.1 169.7 311.6 160.4C312.753 160.276 313.906 160.034 315.059 159.792C316.706 159.446 318.353 159.1 320 159.1C373 159.1 416 202.1 416 255.1C416 269.7 413.1 282.7 407.1 294.5L446.6 324.7C457.7 304.3 464 280.9 464 255.1C464 176.5 399.5 111.1 320 111.1C282.7 111.1 248.6 126.2 223.1 149.5ZM320 480C239.2 480 174.5 443.2 127.4 399.4C80.6201 355.1 49.3401 304 34.4601 268.3C32.7022 264.066 31.8864 259.574 32.0128 255.1C32.1222 251.226 32.9379 247.366 34.4601 243.7C44.0001 220.8 60.2901 191.2 83.0901 161.5L177.4 235.8C176.5 242.4 176 249.1 176 255.1C176 335.5 240.5 400 320 400C338.7 400 356.6 396.4 373 389.9L446.2 447.5C409.9 467.1 367.8 480 320 480Z" fill="white"/>
<path fill-rule="evenodd" clip-rule="evenodd" d="M320 32C251.8 32 195 58.27 150.7 92.77L38.8101 5.112C28.3701 -3.065 13.2901 -1.236 5.11206 9.196C-3.06494 19.63 -1.23594 34.71 9.19606 42.89L601.2 506.9C611.6 515.1 626.7 513.2 634.9 502.8C643.1 492.4 641.2 477.3 630.8 469.1L525.6 386.7C565.2 346.1 592.1 300.6 605.5 268.3C608.8 260.4 608.8 251.6 605.5 243.7C590.7 207.1 559.4 156 512.6 112.6C465.5 68.84 400.8 32 320 32ZM127.4 399.4C174.5 443.2 239.2 480 320 480C367.8 480 409.9 467.1 446.2 447.5L373 389.9C356.6 396.4 338.7 400 320 400C240.5 400 176 335.5 176 255.1C176 249.1 176.5 242.4 177.4 235.8L83.0901 161.5C60.2901 191.2 44.0001 220.8 34.4601 243.7C32.9379 247.366 32.1222 251.226 32.0128 255.1C31.8864 259.574 32.7022 264.066 34.4601 268.3C49.3401 304 80.6201 355.1 127.4 399.4ZM313.4 220.3L223.1 149.5C248.6 126.2 282.7 111.1 320 111.1C399.5 111.1 464 176.5 464 255.1C464 280.9 457.7 304.3 446.6 324.7L407.1 294.5C413.1 282.7 416 269.7 416 255.1C416 202.1 373 159.1 320 159.1C318.353 159.1 316.706 159.446 315.059 159.792C313.906 160.034 312.753 160.276 311.6 160.4C316.1 169.7 320 180.5 320 191.1C320 202.2 317.6 211.8 313.4 220.3Z" fill="white"/>
</svg>